HIERARCHY
ROOT Hips
{
	OFFSET 0.000000 8.830580 0.000000
	CHANNELS 6 Xposition Yposition Zposition Zrotation Yrotation Xrotation 
	JOINT Spine
	{
		OFFSET 0.000000 0.010000 0.000000
		CHANNELS 3 Zrotation Yrotation Xrotation
		JOINT Spine1
		{
			OFFSET 0.000000 2.459130 0.000000
			CHANNELS 3 Zrotation Yrotation Xrotation
			JOINT Neck
			{
				OFFSET 0.000000 2.484630 0.000000
				CHANNELS 3 Zrotation Yrotation Xrotation
				JOINT Head_virtual
				{
					OFFSET 0.000000 0.000000 0.000000
					CHANNELS 3 Zrotation Yrotation Xrotation
					JOINT Head
					{
						OFFSET 0.000000 0.927525 0.000000
						CHANNELS 3 Zrotation Yrotation Xrotation
						End Site
						{
							OFFSET 0.000000 0.000000 0.000000
						}
					}
				}
				JOINT LeftUpArm_virtual
				{
					OFFSET 0.000000 0.000000 0.000000
					CHANNELS 3 Zrotation Yrotation Xrotation
					JOINT LeftUpArm
					{
						OFFSET 1.248820 0.000000 0.000000
						CHANNELS 3 Zrotation Yrotation Xrotation
						JOINT LeftForeArm
						{
							OFFSET 2.597580 0.000000 0.000000
							CHANNELS 3 Zrotation Yrotation Xrotation
							JOINT LeftHand
							{
								OFFSET 2.455420 0.000000 0.000000
								CHANNELS 3 Zrotation Yrotation Xrotation
								End Site
								{
									OFFSET 0.000000 0.000000 0.000000
								}
							}
						}
					}
				}
				JOINT RightUpArm_virtual
				{
					OFFSET -0.000000 -0.000000 -0.000000
					CHANNELS 3 Zrotation Yrotation Xrotation
					JOINT RightUpArm
					{
						OFFSET -1.248820 -0.000000 -0.000000
						CHANNELS 3 Zrotation Yrotation Xrotation
						JOINT RightForeArm
						{
							OFFSET -2.597580 -0.000000 -0.000000
							CHANNELS 3 Zrotation Yrotation Xrotation
							JOINT RightHand
							{
								OFFSET -2.455420 -0.000000 -0.000000
								CHANNELS 3 Zrotation Yrotation Xrotation
								End Site
								{
									OFFSET 0.000000 0.000000 0.000000
								}
							}
						}
					}
				}
			}
		}
	}
	JOINT LeftUpLeg
	{
		OFFSET 1.271939 0.000000 0.000000
		CHANNELS 3 Zrotation Yrotation Xrotation
		JOINT LeftLowLeg
		{
			OFFSET 0.000000 -4.342910 0.000000
			CHANNELS 3 Zrotation Yrotation Xrotation
			JOINT LeftFoot
			{
				OFFSET 0.000000 -4.487670 0.000000
				CHANNELS 3 Zrotation Yrotation Xrotation
				JOINT LeftToeBase
				{
					OFFSET 0.000000 0.000000 1.515070
					CHANNELS 3 Zrotation Yrotation Xrotation
					End Site
					{
						OFFSET 0.000000 0.000000 0.000000
					}
				}
			}
		}
	}
	JOINT RightUpLeg
	{
		OFFSET -1.271939 0.000000 0.000000
		CHANNELS 3 Zrotation Yrotation Xrotation
		JOINT RightLowLeg
		{
			OFFSET 0.000000 -4.342910 0.000000
			CHANNELS 3 Zrotation Yrotation Xrotation
			JOINT RightFoot
			{
				OFFSET 0.000000 -4.487670 0.000000
				CHANNELS 3 Zrotation Yrotation Xrotation
				JOINT RightToeBase
				{
					OFFSET 0.000000 0.000000 1.515070
					CHANNELS 3 Zrotation Yrotation Xrotation
					End Site
					{
						OFFSET 0.000000 0.000000 0.000000
					}
				}
			}
		}
	}
}
MOTION
Frames: 14
Frame Time: 0.041667
-18.204188 9.169798 45.046184 -174.615836 3.101453 -174.099428 1.876377 0.843062 -6.492746 3.823138 1.358318 -8.265489 0.000000 0.000000 0.000000 -26.699075 10.627646 12.712747 7.184514 28.405956 -87.252472 -21.519699 6.558910 -14.430400 9.643420 -16.349600 -25.285000 0.000000 -8.592530 0.000000 21.928200 2.608870 22.853399 18.231701 -4.273780 -9.888430 -1.788570 -0.879596 -52.688499 0.000000 13.528700 0.000000 -18.158501 -13.741800 46.484001 2.462513 -3.615615 -6.048213 0.000000 0.000000 6.156130 -6.093161 14.627335 4.867732 0.000000 0.000000 -37.361200 8.176540 -0.310464 -7.441430 0.000000 0.000000 11.090600 8.029284 -14.882922 5.894759 0.000000 0.000000 -43.287600 
-18.205135 9.169702 45.049161 -174.619631 3.214243 -174.145316 1.863507 0.893298 -6.488552 3.731131 1.415514 -8.349116 0.000000 0.000000 0.000000 -26.567259 10.546111 12.764726 7.125992 28.491609 -87.285905 -21.536301 6.563200 -14.567800 9.669320 -16.273300 -25.008600 0.000000 -8.742660 0.000000 21.659201 2.622170 23.152700 18.272600 -4.290600 -9.906220 -1.747660 -0.832126 -52.717499 0.000000 13.372700 0.000000 -18.213301 -13.758900 46.601200 2.442148 -3.585632 -5.999908 0.000000 0.000000 6.151850 -6.071412 14.703938 4.875127 0.000000 0.000000 -37.365499 8.158030 -0.309847 -7.395939 0.000000 0.000000 11.054300 7.972064 -14.763345 5.954266 0.000000 0.000000 -43.316900 
-18.205717 9.169623 45.052237 -174.615187 3.313180 -174.122925 1.839493 0.943908 -6.496215 3.700895 1.475488 -8.474831 0.000000 0.000000 0.000000 -26.544574 10.516334 12.767945 7.097010 28.506641 -87.348294 -21.562099 6.615160 -14.597800 9.725030 -16.214899 -24.558001 0.000000 -8.750850 0.000000 21.514500 2.641640 22.975700 18.297501 -4.325420 -9.878780 -1.745180 -0.830717 -52.744301 0.000000 13.225800 0.000000 -18.218599 -13.794000 46.684898 2.441949 -3.618657 -6.029005 0.000000 0.000000 6.159980 -6.050649 14.825285 4.868957 0.000000 0.000000 -37.353500 8.144062 -0.175253 -7.432485 0.000000 0.000000 11.047200 8.043392 -14.737446 5.947308 0.000000 0.000000 -43.482599 
-18.206009 9.169630 45.052721 -174.618386 3.437660 -174.025167 1.801792 0.981949 -6.645360 3.697652 1.521928 -8.529191 0.000000 0.000000 0.000000 -26.533732 10.474553 12.776742 7.078543 28.498102 -87.394655 -21.556000 6.671420 -14.604800 9.775280 -16.077999 -24.474501 0.000000 -8.783360 0.000000 21.258499 2.909820 22.760799 18.325100 -4.345130 -9.910240 -1.743400 -0.795100 -52.885200 0.000000 13.100100 0.000000 -18.194099 -13.741900 46.967400 2.440726 -3.693891 -6.086082 0.000000 0.000000 6.117390 -6.042690 15.008099 4.860163 0.000000 0.000000 -37.354700 8.120411 0.051132 -7.552333 0.000000 0.000000 11.090900 8.055063 -14.757113 5.929464 0.000000 0.000000 -43.516199 
-18.205937 9.169552 45.051991 -174.616943 3.543705 -173.920625 1.757779 1.004359 -6.827294 3.737963 1.552025 -8.552901 0.000000 0.000000 0.000000 -26.533449 10.385152 12.844860 7.034526 28.465575 -87.466488 -21.604000 6.718070 -14.626700 9.895130 -15.968300 -24.422199 0.000000 -8.649640 0.000000 21.160299 3.069490 22.582399 18.344700 -4.361730 -10.003800 -1.752980 -0.749514 -53.024601 0.000000 13.015100 0.000000 -18.355400 -13.812400 47.069698 2.443122 -3.712105 -6.151105 0.000000 0.000000 6.082800 -6.038336 15.118380 4.858957 0.000000 0.000000 -37.374100 8.097365 0.313037 -7.647905 0.000000 0.000000 11.086900 8.054334 -14.819349 5.943878 0.000000 0.000000 -43.401600 
-18.205828 9.169344 45.050039 -174.622945 3.623830 -173.835694 1.732673 1.013392 -6.995260 3.751489 1.565206 -8.552995 0.000000 0.000000 0.000000 -26.590187 10.364215 12.843429 7.035649 28.402649 -87.500380 -21.624100 6.790090 -14.686500 10.001000 -15.890700 -24.395100 0.000000 -8.446910 0.000000 21.100800 3.149140 22.701900 18.374500 -4.359050 -10.076800 -1.799010 -0.754223 -53.046902 0.000000 12.892300 0.000000 -18.450701 -13.756000 47.056702 2.442415 -3.779642 -6.182750 0.000000 0.000000 6.034860 -6.033852 15.243595 4.840281 0.000000 0.000000 -37.347799 8.066134 0.616346 -7.707769 0.000000 0.000000 11.069100 8.097868 -14.957124 5.927781 0.000000 0.000000 -43.268299 
-18.205659 9.168926 45.046826 -174.641461 3.704410 -173.774512 1.704159 1.035463 -7.147113 3.755394 1.591500 -8.536507 0.000000 0.000000 0.000000 -26.609794 10.284893 12.837425 7.035310 28.326166 -87.529533 -21.617901 6.855740 -14.784200 10.089600 -15.794300 -24.099001 0.000000 -8.274730 0.000000 21.052299 3.316510 22.750700 18.388399 -4.452870 -10.168500 -1.790640 -0.695600 -53.121101 0.000000 12.903400 0.000000 -18.645599 -13.888600 47.258202 2.421867 -3.771365 -6.184795 0.000000 0.000000 5.986090 -5.987204 15.308370 4.846033 0.000000 0.000000 -37.297001 8.026700 0.920128 -7.733643 0.000000 0.000000 11.042700 8.124422 -15.124005 5.891216 0.000000 0.000000 -43.199100 
-18.205578 9.168772 45.044625 -174.645378 3.703120 -173.761691 1.697486 1.009205 -7.224507 3.765810 1.566419 -8.532102 0.000000 0.000000 0.000000 -26.652749 10.239027 12.826983 7.010805 28.264146 -87.599819 -21.651100 6.917220 -14.820300 10.258300 -15.731100 -24.316601 0.000000 -7.995220 0.000000 21.031500 3.412160 23.114401 18.418600 -4.512610 -10.204600 -1.820180 -0.689887 -53.214699 0.000000 12.905900 0.000000 -18.666000 -13.853400 47.464802 2.425295 -3.871231 -6.177189 0.000000 0.000000 5.974610 -5.999661 15.382099 4.829696 0.000000 0.000000 -37.321699 8.017345 1.022280 -7.716786 0.000000 0.000000 11.011400 8.082092 -15.214295 5.906360 0.000000 0.000000 -42.997000 
-18.205602 9.168469 45.042128 -174.648393 3.711058 -173.755906 1.698813 0.973433 -7.264884 3.776154 1.532409 -8.574039 0.000000 0.000000 0.000000 -26.704314 10.219680 12.814931 7.006061 28.208094 -87.648662 -21.668301 6.974030 -14.889800 10.431800 -15.616900 -24.461599 0.000000 -7.747820 0.000000 20.975100 3.560640 23.560499 18.442600 -4.554520 -10.174000 -1.856570 -0.669636 -53.313702 0.000000 12.872100 0.000000 -18.819901 -13.807400 47.546101 2.423374 -3.928282 -6.163617 0.000000 0.000000 5.969280 -5.978454 15.438105 4.816889 0.000000 0.000000 -37.316000 8.010427 1.058245 -7.687319 0.000000 0.000000 10.968700 8.051441 -15.255280 5.937605 0.000000 0.000000 -42.732401 
-18.205351 9.168489 45.037842 -174.645697 3.732828 -173.754158 1.707678 0.947113 -7.343409 3.792568 1.504322 -8.572506 0.000000 0.000000 0.000000 -26.755701 10.212255 12.862296 6.945739 28.190604 -87.732386 -21.698601 7.034440 -14.947600 10.615300 -15.499800 -24.474501 0.000000 -7.508020 0.000000 21.076599 3.629190 23.865601 18.465599 -4.619010 -10.195400 -1.922070 -0.603061 -53.368801 0.000000 12.819100 0.000000 -18.983601 -13.802900 47.762199 2.416424 -3.828784 -6.119350 0.000000 0.000000 5.939920 -5.954093 15.366173 4.823829 0.000000 0.000000 -37.324200 8.012893 1.028294 -7.618644 0.000000 0.000000 10.879500 7.993834 -15.244883 6.017979 0.000000 0.000000 -42.467100 
-18.206548 9.168437 45.034962 -174.651610 3.757077 -173.725604 1.730077 0.931477 -7.392772 3.799278 1.487011 -8.631989 0.000000 0.000000 0.000000 -26.820224 10.236016 12.905039 6.926080 28.168275 -87.760357 -21.750000 7.101870 -15.025900 10.790900 -15.417100 -24.517700 0.000000 -7.276600 0.000000 21.268299 3.692280 23.984800 18.485201 -4.685960 -10.258400 -2.012280 -0.544574 -53.281300 0.000000 12.802100 0.000000 -19.245899 -13.900600 47.711601 2.393280 -3.742728 -6.127248 0.000000 0.000000 5.942130 -5.953491 15.314230 4.814641 0.000000 0.000000 -37.327200 7.996056 0.995844 -7.600925 0.000000 0.000000 10.817400 8.051298 -15.250741 6.074005 0.000000 0.000000 -42.303101 
-18.207750 9.168391 45.031611 -174.643850 3.759358 -173.689038 1.762905 0.913220 -7.469344 3.813275 1.463344 -8.654384 0.000000 0.000000 0.000000 -26.861564 10.237521 12.955502 6.892127 28.155447 -87.796560 -21.813299 7.156230 -15.108800 10.963100 -15.326900 -24.654499 0.000000 -7.117330 0.000000 21.420601 3.818260 24.046200 18.496599 -4.713710 -10.312700 -2.104470 -0.580668 -53.432098 0.000000 12.849600 0.000000 -19.281200 -13.975100 47.928101 2.376602 -3.536497 -6.165627 0.000000 0.000000 5.987220 -5.905891 15.147589 4.802842 0.000000 0.000000 -37.309000 7.997783 0.899487 -7.590241 0.000000 0.000000 10.762100 8.101740 -15.206326 6.119328 0.000000 0.000000 -42.123199 
-18.209062 9.168151 45.027124 -174.645451 3.769463 -173.689268 1.799784 0.913850 -7.532083 3.802004 1.456253 -8.637061 0.000000 0.000000 0.000000 -26.864818 10.211047 13.003754 6.837487 28.160467 -87.848870 -21.858700 7.188080 -15.178500 11.114300 -15.258300 -24.903500 0.000000 -6.993760 0.000000 21.537001 3.912210 24.272100 18.523199 -4.744130 -10.367800 -2.209200 -0.657830 -53.532600 0.000000 12.921400 0.000000 -19.277300 -14.085500 47.955299 2.355995 -3.444610 -6.151486 0.000000 0.000000 6.016020 -5.927056 15.062338 4.770145 0.000000 0.000000 -37.281900 7.987106 0.833610 -7.541993 0.000000 0.000000 10.716100 8.172920 -15.173532 6.150703 0.000000 0.000000 -41.914200 
-18.210700 9.167953 45.021940 -174.645128 3.797079 -173.707245 1.847156 0.925234 -7.612588 3.785763 1.453243 -8.513999 0.000000 0.000000 0.000000 -26.901515 10.223171 13.003828 6.637250 28.186030 -88.007616 -21.863300 7.273290 -15.265600 11.180300 -15.178600 -24.812401 0.000000 -7.019610 0.000000 21.516701 4.023150 24.261801 18.544701 -4.778520 -10.463900 -2.297340 -0.733489 -53.681900 0.000000 12.988900 0.000000 -19.159599 -14.063000 48.022598 2.338824 -3.466426 -6.099041 0.000000 0.000000 6.022370 -5.963608 15.105211 4.717547 0.000000 0.000000 -37.261600 7.974882 0.830011 -7.488350 0.000000 0.000000 10.697000 8.222547 -15.185693 6.182685 0.000000 0.000000 -41.738300 
